<svg xmlns="http://www.w3.org/2000/svg" viewBox="0 0 24 24" fill="#37ec13">
    <path d="M20.25 4.5a.75.75 0 0 0-1.06 0l-1.9 1.9A10.45 10.45 0 0 0 12 5.25a10.45 10.45 0 0 0-5.29 1.15l-1.9-1.9a.75.75 0 0 0-1.06 1.06l1.83 1.83C3.65 9.4 2.25 12.35 2.25 15.75v1.5a.75.75 0 0 0 1.5 0v-1.5c0-3.3 1.55-6 4.05-7.6l2.14 2.14a4.48 4.48 0 0 0-.69 2.46c0 2.48 2.02 4.5 4.5 4.5 2.16 0 4.02-1.52 4.4-3.56l2.04 2.04a.75.75 0 0 0 1.06-1.06zm-7.9 6.84a3 3 0 0 1-1.7 1.7L9.04 11.4l3.31 3.31a3 3 0 0 1-1.1.29c-1.65 0-3-1.35-3-3 0-.42.09-.81.24-1.17l3.25 3.25a3 3 0 0 1 1.6-1.6L14.96 14.1a3 3 0 0 1-1.52-1.93l-1.09 1.09L12.35 13.34zm5.09-2.09c0 .77-.28 1.48-.75 2.03l-1.77-1.77a3 3 0 0 0-2.03-.75l-1.77-1.77c.55-.47 1.26-.75 2.03-.75 1.65 0 3 1.35 3 3zM18 12.63l2.84 2.84a.75.75 0 1 0 1.06-1.06l-11.4-11.4a.75.75 0 0 0-1.06 1.06l1.37 1.37C8.42 5.51 10.15 5.25 12 5.25c2.56 0 4.97.94 6.88 2.53l-1.09 1.09A8.99 8.99 0 0 0 18 12.63z" />
</svg>